<svg data-v-423bf9ae="" xmlns="http://www.w3.org/2000/svg" viewBox="0 0 356 111" class="iconLeft"><!----><!----><!----><g data-v-423bf9ae="" id="48515f40-ca8f-4ba8-a65c-3c5c59693574" fill="#23073F" transform="matrix(3.5132663249969482,0,0,3.5132663249969482,96.13197326660156,25.04458236694336)"><path d="M4.03 13.02C5.53 13.02 7.16 12.21 7.16 10.39C7.16 7.05 1.65 7.82 1.65 4.72C1.65 3.22 2.92 2.52 4.11 2.52C5.15 2.52 5.97 3.04 6.37 3.61L6.60 3.43C6.13 2.80 5.22 2.24 4.10 2.24C2.82 2.24 1.37 2.99 1.37 4.72C1.37 8.09 6.88 7.32 6.88 10.39C6.88 11.92 5.53 12.74 4.04 12.74C2.56 12.74 1.47 11.92 1.10 10.96L0.84 11.04C1.26 12.15 2.49 13.02 4.03 13.02ZM12.13 6.16L12.13 5.88L10.08 5.88L10.08 2.83L9.80 2.83L9.80 5.88L8.63 5.88L8.63 6.16L9.80 6.16L9.80 11.50C9.80 12.34 10.48 13.02 11.32 13.02C11.57 13.02 11.92 12.92 12.09 12.79L12.09 12.74L11.32 12.74C10.62 12.74 10.08 12.20 10.08 11.50L10.08 6.16ZM17.17 5.74C16.10 5.74 15.16 6.37 14.72 7.26L14.72 5.88L14.44 5.88L14.44 12.88L14.72 12.88L14.72 8.45C14.72 7.11 15.82 6.02 17.17 6.02C17.41 6.02 17.62 6.05 17.83 6.13L17.83 5.81C17.62 5.78 17.41 5.74 17.17 5.74ZM19.91 4.48C20.14 4.48 20.34 4.30 20.34 4.06C20.34 3.83 20.14 3.64 19.91 3.64C19.69 3.64 19.50 3.83 19.50 4.06C19.50 4.30 19.69 4.48 19.91 4.48ZM19.78 12.88L20.05 12.88L20.05 5.88L19.78 5.88ZM23.43 12.86L23.71 12.86L23.71 0L23.43 0ZM27.81 12.88L28.21 12.88L24.34 8.96L27.93 5.88L27.49 5.88L23.92 8.96ZM36.73 9.31L36.73 9.21C36.61 7.23 35.05 5.74 33.11 5.74C31.12 5.74 29.47 7.39 29.47 9.38C29.47 11.38 31.12 13.02 33.11 13.02C34.72 13.02 36.10 11.95 36.58 10.48L36.30 10.48C35.84 11.79 34.58 12.74 33.11 12.74C31.27 12.74 29.79 11.29 29.75 9.45L29.75 9.31ZM33.11 6.02C34.84 6.02 36.26 7.33 36.45 9.03L29.77 9.03C29.98 7.32 31.36 6.02 33.11 6.02ZM42.82 5.74C41.32 5.74 40.02 6.67 39.46 8.00L39.46 5.88L39.18 5.88L39.18 17.08L39.46 17.08L39.46 10.76C40.02 12.09 41.32 13.02 42.82 13.02C44.82 13.02 46.46 11.38 46.46 9.38C46.46 7.39 44.82 5.74 42.82 5.74ZM42.82 12.74C40.97 12.74 39.46 11.24 39.46 9.38C39.46 7.53 40.97 6.02 42.82 6.02C44.68 6.02 46.18 7.53 46.18 9.38C46.18 11.24 44.68 12.74 42.82 12.74ZM48.98 12.88L49.26 12.88L49.26 0L48.98 0ZM59.92 12.74C59.38 12.74 59.06 12.36 59.06 11.64L59.06 5.88L58.78 5.88L58.78 8.03C58.24 6.69 56.95 5.74 55.42 5.74C53.43 5.74 51.78 7.39 51.78 9.38C51.78 11.38 53.43 13.02 55.42 13.02C56.95 13.02 58.24 12.15 58.78 10.80L58.78 11.64C58.78 12.53 59.19 13.02 59.92 13.02C60.10 13.02 60.29 12.97 60.45 12.88L60.45 12.74ZM55.42 12.74C53.57 12.74 52.06 11.24 52.06 9.38C52.06 7.53 53.57 6.02 55.42 6.02C57.28 6.02 58.78 7.53 58.78 9.38C58.78 11.24 57.28 12.74 55.42 12.74ZM64.70 6.16L64.70 5.88L62.65 5.88L62.65 2.83L62.37 2.83L62.37 5.88L61.20 5.88L61.20 6.16L62.37 6.16L62.37 11.50C62.37 12.34 63.05 13.02 63.89 13.02C64.14 13.02 64.49 12.92 64.66 12.79L64.66 12.74L63.89 12.74C63.19 12.74 62.65 12.20 62.65 11.50L62.65 6.16ZM73.71 9.31L73.71 9.21C73.59 7.23 72.03 5.74 70.09 5.74C68.09 5.74 66.45 7.39 66.45 9.38C66.45 11.38 68.09 13.02 70.09 13.02C71.70 13.02 73.08 11.95 73.55 10.48L73.27 10.48C72.82 11.79 71.56 12.74 70.09 12.74C68.25 12.74 66.76 11.29 66.73 9.45L66.73 9.31ZM70.09 6.02C71.82 6.02 73.24 7.33 73.43 9.03L66.75 9.03C66.96 7.32 68.34 6.02 70.09 6.02Z"></path></g><defs data-v-423bf9ae=""><linearGradient data-v-423bf9ae="" gradientTransform="rotate(25)" id="b99910df-44c0-484a-89c2-644dfef38678" x1="0%" y1="0%" x2="100%" y2="0%"><stop data-v-423bf9ae="" offset="0%" style="stop-color: rgb(233, 13, 202); stop-opacity: 1;"></stop><stop data-v-423bf9ae="" offset="100%" style="stop-color: rgb(21, 54, 241); stop-opacity: 1;"></stop></linearGradient></defs><g data-v-423bf9ae="" id="7701dbd3-5918-4fde-b4ef-cf92c177c672" transform="matrix(1.1059895753860474,0,0,1.1059895753860474,-15.01851749420166,-0.05493327975273132)" stroke="none" fill="url(#b99910df-44c0-484a-89c2-644dfef38678)"><path d="M85.403 72.718a4.31 4.31 0 0 0-1.66-3.09c.984-.764 1.636-1.885 1.679-3.221l-.005-8.027a4.291 4.291 0 0 0-1.674-3.408 4.315 4.315 0 0 0 1.669-3.273l.02-10.1c0-1.346-.671-1.979-1.613-2.241l-14.723-3.98-.037-14.502c0-13.372-6.699-20.78-18.328-20.78-10.422 0-18.88 5.086-18.88 20.859v18.854l-16.054 4.542c-.933.263-1.82 1.434-1.82 2.442l-.014 12.384h.009a4.532 4.532 0 0 0 1.763 3.45 4.514 4.514 0 0 0-1.768 3.592v.033l-.01-.01-.004 7.445h.009v.075h.009a4.52 4.52 0 0 0 1.763 3.446 4.518 4.518 0 0 0-1.749 3.249l-.042.028-.005 6.24a5.752 5.752 0 0 0 3.854 5.134l24.319 7.647c.337.079.68.131 1.041.131.379 0 .745-.052 1.097-.146l39.375-17.053s.98-.304 1.439-1.072c.361-.619.38-1.844.38-1.844l-.04-6.804zm-27.34-56.874c.296 0 .558.126.745.329 1.188 1.106 1.75 2.93 1.75 4.91v18.481l-.005.006v.015c0 .472-.38.86-.854.86a.848.848 0 0 1-.342-.079c-1.37-.398-2.265-1.05-2.265-1.782h-.005l-.006-21.075c0-.187-.009-.366-.018-.544l.004-.005c-.004-.036-.014-.076-.014-.107a1.011 1.011 0 0 1 1.01-1.009zm-2.072 2.36v14.791l-10.066 2.842V25.301c0-11.609 2.635-13.053 6.363-13.124 2.325 0 3.703 2.814 3.703 6.027zm-22.012 3.473c.122-12.555 5.692-18.21 13.32-19.883.736-.137 3.545-.553 4.347 1.218.643 1.43-1.623 2.448-2.162 2.664-5.228 1.567-8.749 5.997-8.749 16.119v22.477l-.014-.009c-.169 1.623-1.608 2.176-3.366 2.176-1.866 0-3.381-.627-3.381-2.493l.005-22.269zm22.265 62.294c-.571 0-1.04-.465-1.04-1.041a1.04 1.04 0 0 1 1.04-1.036 1.038 1.038 0 1 1 0 2.077zm0-14.502c-.571 0-1.04-.465-1.04-1.041 0-.571.469-1.041 1.04-1.041a1.041 1.041 0 0 1 0 2.082zM81.075 41.79L43.872 53.345c-.22.042-.445.07-.675.07-.427 0-.834-.074-1.214-.206v.009l-12.35-3.686a1.9 1.9 0 0 0-2.527.929 1.915 1.915 0 0 0 .928 2.537l12.556 3.638a3.683 3.683 0 0 1 2.603 3.451v3.892c0 1.257-.272 4.018-2.598 3.451l-10.962-3.277a1.904 1.904 0 0 0-2.527.933 1.912 1.912 0 0 0 .928 2.536l12.556 3.906c.136.042.272.098.403.154.572.115 1.627.221 2.944-.196l7.91-2.689a1.035 1.035 0 0 1 .67 1.958l-8.106 2.752c-.263.126-1.107.609-1.219 1.819v3.192c0 1.257-.272 4.018-2.603 3.441l-10.957-3.268a1.897 1.897 0 0 0-2.527.933 1.91 1.91 0 0 0 .928 2.532l12.556 3.91c.07.02.136.042.207.065.497.137 1.65.329 3.141-.146l7.91-2.687a1.038 1.038 0 0 1 1.312.638 1.035 1.035 0 0 1-.642 1.317l-8.106 2.753c-.263.126-1.107.608-1.219 1.814v3.254a2.633 2.633 0 0 1-2.626 2.489c-.234 0-.455-.032-.67-.089L18.868 88.91a2.631 2.631 0 0 1-1.857-2.513v-3.682c0-1.097 0-2.081.005-2.076a1.501 1.501 0 0 1 1.876-1.294c.197.065.403.105.619.105a1.926 1.926 0 0 0 1.923-1.93c0-.866-.582-1.608-1.379-1.847l-2.006-.605a1.497 1.497 0 0 1-1.037-1.294s0-.136-.004-.36c.004-2.365.004-7.361.009-7.356a1.505 1.505 0 0 1 1.496-1.351c.131 0 .263.023.38.056a1.923 1.923 0 0 0 2.542-1.824 1.93 1.93 0 0 0-1.379-1.847l-2.006-.604a1.494 1.494 0 0 1-1.037-1.297c-.004.007-.014-10.3-.014-10.3a2.63 2.63 0 0 1 2.035-2.559l12.819-3.84v4.22h.009c0 1.571 3.15 2.846 7.033 2.846 3.882 0 7.033-1.275 7.033-2.846V38.29l9.804-2.937c.083-.026.177-.047.262-.064v4.918h.005c0 1.458 2.936 2.644 6.555 2.644 3.62 0 6.555-1.186 6.555-2.644l-.005-2.472 11.961 3.043a.539.539 0 0 1 .01 1.012z"></path><path d="M21.671 47.287a1.87 1.87 0 0 0-1.871 1.87c0 1.033.834 1.867 1.871 1.867a1.868 1.868 0 1 0 0-3.737z"></path></g><!----></svg>