<svg data-v-fde0c5aa="" xmlns="http://www.w3.org/2000/svg" viewBox="0 0 300 300" class="icon"><!----><defs data-v-fde0c5aa=""><!----></defs><rect data-v-fde0c5aa="" fill="#EADEFA" x="0" y="0" width="300px" height="300px" class="logo-background-square"></rect><!----><defs data-v-fde0c5aa=""><linearGradient data-v-fde0c5aa="" gradientTransform="rotate(25)" id="ca1123db-69f2-4c4a-b56f-6fd28817230e" x1="0%" y1="0%" x2="100%" y2="0%"><stop data-v-fde0c5aa="" offset="0%" stop-color="#E90DCA" stop-opacity="1"></stop><stop data-v-fde0c5aa="" offset="100%" stop-color="#1536F1" stop-opacity="1"></stop></linearGradient></defs><g data-v-fde0c5aa="" id="6f384d4f-b18d-43b8-a166-a73dbb1e35ae" fill="url(#ca1123db-69f2-4c4a-b56f-6fd28817230e)" stroke="none" transform="matrix(2.2101876735687256,0,0,2.2101876735687256,40.17698767757632,39.78416136880936)"><path d="M85.403 72.718a4.31 4.31 0 0 0-1.66-3.09c.984-.764 1.636-1.885 1.679-3.221l-.005-8.027a4.291 4.291 0 0 0-1.674-3.408 4.315 4.315 0 0 0 1.669-3.273l.02-10.1c0-1.346-.671-1.979-1.613-2.241l-14.723-3.98-.037-14.502c0-13.372-6.699-20.78-18.328-20.78-10.422 0-18.88 5.086-18.88 20.859v18.854l-16.054 4.542c-.933.263-1.82 1.434-1.82 2.442l-.014 12.384h.009a4.532 4.532 0 0 0 1.763 3.45 4.514 4.514 0 0 0-1.768 3.592v.033l-.01-.01-.004 7.445h.009v.075h.009a4.52 4.52 0 0 0 1.763 3.446 4.518 4.518 0 0 0-1.749 3.249l-.042.028-.005 6.24a5.752 5.752 0 0 0 3.854 5.134l24.319 7.647c.337.079.68.131 1.041.131.379 0 .745-.052 1.097-.146l39.375-17.053s.98-.304 1.439-1.072c.361-.619.38-1.844.38-1.844l-.04-6.804zm-27.34-56.874c.296 0 .558.126.745.329 1.188 1.106 1.75 2.93 1.75 4.91v18.481l-.005.006v.015c0 .472-.38.86-.854.86a.848.848 0 0 1-.342-.079c-1.37-.398-2.265-1.05-2.265-1.782h-.005l-.006-21.075c0-.187-.009-.366-.018-.544l.004-.005c-.004-.036-.014-.076-.014-.107a1.011 1.011 0 0 1 1.01-1.009zm-2.072 2.36v14.791l-10.066 2.842V25.301c0-11.609 2.635-13.053 6.363-13.124 2.325 0 3.703 2.814 3.703 6.027zm-22.012 3.473c.122-12.555 5.692-18.21 13.32-19.883.736-.137 3.545-.553 4.347 1.218.643 1.43-1.623 2.448-2.162 2.664-5.228 1.567-8.749 5.997-8.749 16.119v22.477l-.014-.009c-.169 1.623-1.608 2.176-3.366 2.176-1.866 0-3.381-.627-3.381-2.493l.005-22.269zm22.265 62.294c-.571 0-1.04-.465-1.04-1.041a1.04 1.04 0 0 1 1.04-1.036 1.038 1.038 0 1 1 0 2.077zm0-14.502c-.571 0-1.04-.465-1.04-1.041 0-.571.469-1.041 1.04-1.041a1.041 1.041 0 0 1 0 2.082zM81.075 41.79L43.872 53.345c-.22.042-.445.07-.675.07-.427 0-.834-.074-1.214-.206v.009l-12.35-3.686a1.9 1.9 0 0 0-2.527.929 1.915 1.915 0 0 0 .928 2.537l12.556 3.638a3.683 3.683 0 0 1 2.603 3.451v3.892c0 1.257-.272 4.018-2.598 3.451l-10.962-3.277a1.904 1.904 0 0 0-2.527.933 1.912 1.912 0 0 0 .928 2.536l12.556 3.906c.136.042.272.098.403.154.572.115 1.627.221 2.944-.196l7.91-2.689a1.035 1.035 0 0 1 .67 1.958l-8.106 2.752c-.263.126-1.107.609-1.219 1.819v3.192c0 1.257-.272 4.018-2.603 3.441l-10.957-3.268a1.897 1.897 0 0 0-2.527.933 1.91 1.91 0 0 0 .928 2.532l12.556 3.91c.07.02.136.042.207.065.497.137 1.65.329 3.141-.146l7.91-2.687a1.038 1.038 0 0 1 1.312.638 1.035 1.035 0 0 1-.642 1.317l-8.106 2.753c-.263.126-1.107.608-1.219 1.814v3.254a2.633 2.633 0 0 1-2.626 2.489c-.234 0-.455-.032-.67-.089L18.868 88.91a2.631 2.631 0 0 1-1.857-2.513v-3.682c0-1.097 0-2.081.005-2.076a1.501 1.501 0 0 1 1.876-1.294c.197.065.403.105.619.105a1.926 1.926 0 0 0 1.923-1.93c0-.866-.582-1.608-1.379-1.847l-2.006-.605a1.497 1.497 0 0 1-1.037-1.294s0-.136-.004-.36c.004-2.365.004-7.361.009-7.356a1.505 1.505 0 0 1 1.496-1.351c.131 0 .263.023.38.056a1.923 1.923 0 0 0 2.542-1.824 1.93 1.93 0 0 0-1.379-1.847l-2.006-.604a1.494 1.494 0 0 1-1.037-1.297c-.004.007-.014-10.3-.014-10.3a2.63 2.63 0 0 1 2.035-2.559l12.819-3.84v4.22h.009c0 1.571 3.15 2.846 7.033 2.846 3.882 0 7.033-1.275 7.033-2.846V38.29l9.804-2.937c.083-.026.177-.047.262-.064v4.918h.005c0 1.458 2.936 2.644 6.555 2.644 3.62 0 6.555-1.186 6.555-2.644l-.005-2.472 11.961 3.043a.539.539 0 0 1 .01 1.012z"></path><path d="M21.671 47.287a1.87 1.87 0 0 0-1.871 1.87c0 1.033.834 1.867 1.871 1.867a1.868 1.868 0 1 0 0-3.737z"></path></g><!----></svg>